<svg width="25" height="28" viewBox="0 0 25 28" fill="none" xmlns="http://www.w3.org/2000/svg">
<path d="M5.55566 12.5H8.33344V15.2778H5.55566V12.5ZM5.55566 18.0556H8.33344V20.8333H5.55566V18.0556ZM11.1112 12.5H13.889V15.2778H11.1112V12.5ZM11.1112 18.0556H13.889V20.8333H11.1112V18.0556ZM16.6668 12.5H19.4446V15.2778H16.6668V12.5ZM16.6668 18.0556H19.4446V20.8333H16.6668V18.0556Z" fill="black"/>
<path d="M2.77778 27.7778H22.2222C23.7542 27.7778 25 26.5319 25 25V5.55556C25 4.02361 23.7542 2.77778 22.2222 2.77778H19.4444V0H16.6667V2.77778H8.33333V0H5.55556V2.77778H2.77778C1.24583 2.77778 0 4.02361 0 5.55556V25C0 26.5319 1.24583 27.7778 2.77778 27.7778ZM22.2222 8.33333L22.2236 25H2.77778V8.33333H22.2222Z" fill="black"/>
</svg>
