<svg width="38" height="32" viewBox="0 0 38 32" fill="none" xmlns="http://www.w3.org/2000/svg">
<path d="M35.625 0.0204735H0V3.77047H4.3125L10.4625 20.6455C10.8493 21.7396 11.5651 22.6874 12.5118 23.3587C13.4584 24.0301 14.5895 24.3922 15.75 24.3955H31.875V20.6455H15.75C15.3647 20.6453 14.9887 20.5264 14.6734 20.305C14.358 20.0836 14.1185 19.7704 13.9875 19.408L13.125 16.8955H30.525C31.3388 16.8943 32.1301 16.6284 32.7795 16.138C33.429 15.6475 33.9012 14.9591 34.125 14.1767L37.5 2.40172C37.5762 2.1555 37.6009 1.89622 37.5724 1.64005C37.5439 1.38388 37.4629 1.13634 37.3344 0.912882C37.206 0.689422 37.0329 0.494844 36.8258 0.341299C36.6188 0.187753 36.3824 0.078538 36.1313 0.0204735C35.9636 -0.00682449 35.7926 -0.00682449 35.625 0.0204735ZM30.4688 13.1455H11.7188L8.30625 3.77047H33.1313L30.4688 13.1455Z" fill="black"/>
<path d="M15.9375 31.8955C17.4908 31.8955 18.75 30.6363 18.75 29.083C18.75 27.5297 17.4908 26.2705 15.9375 26.2705C14.3842 26.2705 13.125 27.5297 13.125 29.083C13.125 30.6363 14.3842 31.8955 15.9375 31.8955Z" fill="black"/>
<path d="M27.1875 31.8955C28.7408 31.8955 30 30.6363 30 29.083C30 27.5297 28.7408 26.2705 27.1875 26.2705C25.6342 26.2705 24.375 27.5297 24.375 29.083C24.375 30.6363 25.6342 31.8955 27.1875 31.8955Z" fill="black"/>
</svg>
