<svg width="21" height="20" viewBox="0 0 21 20" fill="none" xmlns="http://www.w3.org/2000/svg">
<g clip-path="url(#clip0_27_758)">
<path d="M17.8228 2.5H13.6561C13.6561 1.12109 12.1613 0 10.3228 0C8.48421 0 6.98942 1.12109 6.98942 2.5H2.82275C1.44255 2.5 0.322754 3.33984 0.322754 4.375V18.125C0.322754 19.1602 1.44255 20 2.82275 20H17.8228C19.203 20 20.3228 19.1602 20.3228 18.125V4.375C20.3228 3.33984 19.203 2.5 17.8228 2.5ZM5.32275 16.5625C4.63005 16.5625 4.07275 16.1445 4.07275 15.625C4.07275 15.1055 4.63005 14.6875 5.32275 14.6875C6.01546 14.6875 6.57275 15.1055 6.57275 15.625C6.57275 16.1445 6.01546 16.5625 5.32275 16.5625ZM5.32275 12.8125C4.63005 12.8125 4.07275 12.3945 4.07275 11.875C4.07275 11.3555 4.63005 10.9375 5.32275 10.9375C6.01546 10.9375 6.57275 11.3555 6.57275 11.875C6.57275 12.3945 6.01546 12.8125 5.32275 12.8125ZM5.32275 9.0625C4.63005 9.0625 4.07275 8.64453 4.07275 8.125C4.07275 7.60547 4.63005 7.1875 5.32275 7.1875C6.01546 7.1875 6.57275 7.60547 6.57275 8.125C6.57275 8.64453 6.01546 9.0625 5.32275 9.0625ZM10.3228 1.5625C11.0155 1.5625 11.5728 1.98047 11.5728 2.5C11.5728 3.01953 11.0155 3.4375 10.3228 3.4375C9.63005 3.4375 9.07275 3.01953 9.07275 2.5C9.07275 1.98047 9.63005 1.5625 10.3228 1.5625ZM16.9894 15.9375C16.9894 16.1094 16.8019 16.25 16.5728 16.25H9.07275C8.84359 16.25 8.65609 16.1094 8.65609 15.9375V15.3125C8.65609 15.1406 8.84359 15 9.07275 15H16.5728C16.8019 15 16.9894 15.1406 16.9894 15.3125V15.9375ZM16.9894 12.1875C16.9894 12.3594 16.8019 12.5 16.5728 12.5H9.07275C8.84359 12.5 8.65609 12.3594 8.65609 12.1875V11.5625C8.65609 11.3906 8.84359 11.25 9.07275 11.25H16.5728C16.8019 11.25 16.9894 11.3906 16.9894 11.5625V12.1875ZM16.9894 8.4375C16.9894 8.60938 16.8019 8.75 16.5728 8.75H9.07275C8.84359 8.75 8.65609 8.60938 8.65609 8.4375V7.8125C8.65609 7.64062 8.84359 7.5 9.07275 7.5H16.5728C16.8019 7.5 16.9894 7.64062 16.9894 7.8125V8.4375Z" fill="black"/>
</g>
<defs>
<clipPath id="clip0_27_758">
<rect width="20" height="20" fill="white" transform="translate(0.322754)"/>
</clipPath>
</defs>
</svg>
