<svg width="25" height="25" viewBox="0 0 25 25" fill="none" xmlns="http://www.w3.org/2000/svg">
<g clip-path="url(#clip0_27_796)">
<path d="M24.9764 19.4373C24.6483 18.6404 23.7343 18.2615 22.9374 18.5935L22.0741 18.9529L20.5624 14.9724C22.4335 13.6052 23.0936 11.0545 21.91 9.00367L18.5272 3.12477C18.2147 2.5818 17.5468 2.35523 16.9647 2.59352L12.4999 4.44508L8.03504 2.59352C7.453 2.35133 6.78504 2.5818 6.47254 3.12477L3.08972 9.00367C1.91004 11.0545 2.56629 13.6052 4.43738 14.9685L2.92566 18.949L2.06238 18.5896C1.2655 18.2576 0.355348 18.6365 0.0233168 19.4334C-0.0430894 19.5935 0.0311293 19.7771 0.191286 19.8435L6.53113 22.4763C6.69129 22.5427 6.87097 22.4685 6.93738 22.3084C7.2655 21.5115 6.8905 20.5974 6.09363 20.2654L5.23035 19.906L6.76941 15.8591C6.94129 15.8787 7.11316 15.9099 7.28113 15.9099C9.30066 15.9099 11.1639 14.617 11.7108 12.5779L12.4999 9.63258L13.2889 12.5779C13.8358 14.617 15.6991 15.9099 17.7186 15.9099C17.8866 15.9099 18.0585 15.8787 18.2303 15.8591L19.7655 19.906L18.9022 20.2654C18.1053 20.5974 17.7264 21.5115 18.0585 22.3084C18.1249 22.4685 18.3085 22.5427 18.4647 22.4763L24.8085 19.8435C24.9647 19.7771 25.0428 19.5974 24.9764 19.4373ZM10.7772 8.8318L6.39832 7.01539L7.8241 4.53883L11.5155 6.07008L10.7772 8.8318ZM14.2225 8.8318L13.4843 6.07008L17.1757 4.53883L18.6014 7.01539L14.2225 8.8318Z" fill="#5EC576"/>
</g>
<defs>
<clipPath id="clip0_27_796">
<rect width="25" height="25" fill="white"/>
</clipPath>
</defs>
</svg>
