<svg width="55" height="15" viewBox="0 0 55 15" fill="none" xmlns="http://www.w3.org/2000/svg">
<g clip-path="url(#clip0_27_734)">
<path d="M26.5298 1.29688L24.8293 4.7448L21.0246 5.29948C20.3423 5.39844 20.0689 6.23959 20.5637 6.72136L23.3163 9.40365L22.6652 13.1927C22.548 13.8776 23.2694 14.3906 23.8735 14.0703L27.2772 12.2813L30.6808 14.0703C31.285 14.388 32.0064 13.8776 31.8892 13.1927L31.2381 9.40365L33.9907 6.72136C34.4855 6.23959 34.2121 5.39844 33.5298 5.29948L29.7251 4.7448L28.0246 1.29688C27.7199 0.682296 26.8371 0.674484 26.5298 1.29688Z" fill="#FF585F"/>
</g>
<g clip-path="url(#clip1_27_734)">
<path d="M7.0298 1.29688L5.32928 4.7448L1.52459 5.29948C0.842298 5.39844 0.56886 6.23959 1.06365 6.72136L3.81626 9.40365L3.16521 13.1927C3.04803 13.8776 3.76938 14.3906 4.37355 14.0703L7.77719 12.2813L11.1808 14.0703C11.785 14.388 12.5064 13.8776 12.3892 13.1927L11.7381 9.40365L14.4907 6.72136C14.9855 6.23959 14.7121 5.39844 14.0298 5.29948L10.2251 4.7448L8.52459 1.29688C8.2199 0.682296 7.33709 0.674484 7.0298 1.29688Z" fill="#FF585F"/>
</g>
<g clip-path="url(#clip2_27_734)">
<path d="M46.0298 1.29688L44.3293 4.7448L40.5246 5.29948C39.8423 5.39844 39.5689 6.23959 40.0637 6.72136L42.8163 9.40365L42.1652 13.1927C42.048 13.8776 42.7694 14.3906 43.3735 14.0703L46.7772 12.2813L50.1808 14.0703C50.785 14.388 51.5064 13.8776 51.3892 13.1927L50.7381 9.40365L53.4907 6.72136C53.9855 6.23959 53.7121 5.39844 53.0298 5.29948L49.2251 4.7448L47.5246 1.29688C47.2199 0.682296 46.3371 0.674484 46.0298 1.29688Z" fill="#FF585F"/>
</g>
<defs>
<clipPath id="clip0_27_734">
<rect width="15" height="15" fill="white" transform="translate(19.7773)"/>
</clipPath>
<clipPath id="clip1_27_734">
<rect width="15" height="15" fill="white" transform="translate(0.277344)"/>
</clipPath>
<clipPath id="clip2_27_734">
<rect width="15" height="15" fill="white" transform="translate(39.2773)"/>
</clipPath>
</defs>
</svg>
