<svg width="109" height="36" viewBox="0 0 109 36" fill="none" xmlns="http://www.w3.org/2000/svg">
<path d="M52.9917 3.11232L49.5591 11.3873L41.8793 12.7186C40.5021 12.9561 39.9501 14.9748 40.9489 16.1311L46.5051 22.5686L45.1909 31.6623C44.9544 33.3061 46.4104 34.5373 47.63 33.7686L54.5003 29.4748L61.3706 33.7686C62.5901 34.5311 64.0462 33.3061 63.8097 31.6623L62.4955 22.5686L68.0517 16.1311C69.0504 14.9748 68.4985 12.9561 67.1213 12.7186L59.4414 11.3873L56.0089 3.11232C55.3939 1.63732 53.6119 1.61857 52.9917 3.11232Z" fill="#FFCC00"/>
<path d="M13.6303 3.11232L10.1978 11.3873L2.51796 12.7186C1.14074 12.9561 0.588802 14.9748 1.58755 16.1311L7.14373 22.5686L5.82959 31.6623C5.59305 33.3061 7.04911 34.5373 8.26863 33.7686L15.139 29.4748L22.0093 33.7686C23.2288 34.5311 24.6849 33.3061 24.4483 31.6623L23.1342 22.5686L28.6904 16.1311C29.6891 14.9748 29.1372 12.9561 27.76 12.7186L20.0801 11.3873L16.6476 3.11232C16.0326 1.63732 14.2506 1.61857 13.6303 3.11232Z" fill="#FFCC00"/>
<path d="M92.352 3.11232L88.9195 11.3873L81.2396 12.7186C79.8624 12.9561 79.3105 14.9748 80.3092 16.1311L85.8654 22.5686L84.5513 31.6623C84.3147 33.3061 85.7708 34.5373 86.9903 33.7686L93.8606 29.4748L100.731 33.7686C101.95 34.5311 103.407 33.3061 103.17 31.6623L101.856 22.5686L107.412 16.1311C108.411 14.9748 107.859 12.9561 106.482 12.7186L98.8018 11.3873L95.3693 3.11232C94.7543 1.63732 92.9723 1.61857 92.352 3.11232Z" fill="#FFCC00"/>
</svg>
