<svg width="109" height="36" viewBox="0 0 109 36" fill="none" xmlns="http://www.w3.org/2000/svg">
<path d="M52.9917 3.11256L49.5591 11.3876L41.8793 12.7188C40.5021 12.9563 39.9501 14.9751 40.9489 16.1313L46.5051 22.5688L45.1909 31.6626C44.9544 33.3063 46.4104 34.5376 47.63 33.7688L54.5003 29.4751L61.3706 33.7688C62.5901 34.5313 64.0462 33.3063 63.8097 31.6626L62.4955 22.5688L68.0517 16.1313C69.0504 14.9751 68.4985 12.9563 67.1213 12.7188L59.4414 11.3876L56.0089 3.11256C55.3939 1.63756 53.6119 1.61881 52.9917 3.11256Z" fill="#FFCB03"/>
<path d="M13.6303 3.11256L10.1978 11.3876L2.51796 12.7188C1.14074 12.9563 0.588802 14.9751 1.58755 16.1313L7.14373 22.5688L5.82959 31.6626C5.59305 33.3063 7.04911 34.5376 8.26863 33.7688L15.139 29.4751L22.0093 33.7688C23.2288 34.5313 24.6849 33.3063 24.4483 31.6626L23.1342 22.5688L28.6904 16.1313C29.6891 14.9751 29.1372 12.9563 27.76 12.7188L20.0801 11.3876L16.6476 3.11256C16.0326 1.63756 14.2506 1.61881 13.6303 3.11256Z" fill="#FFCB03"/>
<path d="M92.352 3.11256L88.9195 11.3876L81.2396 12.7188C79.8624 12.9563 79.3105 14.9751 80.3092 16.1313L85.8654 22.5688L84.5513 31.6626C84.3147 33.3063 85.7708 34.5376 86.9903 33.7688L93.8606 29.4751L100.731 33.7688C101.95 34.5313 103.407 33.3063 103.17 31.6626L101.856 22.5688L107.412 16.1313C108.411 14.9751 107.859 12.9563 106.482 12.7188L98.8018 11.3876L95.3693 3.11256C94.7543 1.63756 92.9723 1.61881 92.352 3.11256Z" fill="#FFCB03"/>
</svg>
