<svg width="29" height="25" viewBox="0 0 29 25" fill="none" xmlns="http://www.w3.org/2000/svg">
<g clip-path="url(#clip0_27_722)">
<path d="M14.3611 7.82362L5.35224 14.4143V21.5276C5.35224 21.7118 5.43461 21.8884 5.58122 22.0187C5.72784 22.1489 5.9267 22.2221 6.13405 22.2221L11.6096 22.2095C11.8163 22.2086 12.0142 22.135 12.1599 22.0049C12.3057 21.8747 12.3876 21.6986 12.3875 21.515V17.3609C12.3875 17.1768 12.4699 17.0001 12.6165 16.8699C12.7632 16.7397 12.962 16.6665 13.1694 16.6665H16.2966C16.5039 16.6665 16.7028 16.7397 16.8494 16.8699C16.996 17.0001 17.0784 17.1768 17.0784 17.3609V21.512C17.0781 21.6034 17.0981 21.6939 17.1372 21.7784C17.1764 21.8629 17.2339 21.9397 17.3065 22.0044C17.3792 22.0692 17.4655 22.1205 17.5605 22.1555C17.6555 22.1906 17.7573 22.2086 17.8602 22.2086L23.3339 22.2221C23.5412 22.2221 23.7401 22.1489 23.8867 22.0187C24.0333 21.8884 24.1157 21.7118 24.1157 21.5276V14.4096L15.1087 7.82362C15.0028 7.74781 14.8709 7.70647 14.7349 7.70647C14.5989 7.70647 14.467 7.74781 14.3611 7.82362ZM28.5915 12.3032L24.5066 9.31234V3.30062C24.5066 3.16248 24.4448 3.03001 24.3348 2.93233C24.2249 2.83466 24.0757 2.77979 23.9202 2.77979H21.1839C21.0284 2.77979 20.8792 2.83466 20.7693 2.93233C20.6593 3.03001 20.5975 3.16248 20.5975 3.30062V6.45209L16.2228 3.25505C15.803 2.94818 15.2762 2.7804 14.7325 2.7804C14.1888 2.7804 13.662 2.94818 13.2422 3.25505L0.873443 12.3032C0.814068 12.3468 0.764945 12.4004 0.72888 12.4608C0.692815 12.5213 0.670515 12.5875 0.663255 12.6556C0.655994 12.7237 0.663916 12.7924 0.686566 12.8578C0.709216 12.9232 0.746152 12.984 0.795262 13.0367L2.04127 14.3822C2.09025 14.4351 2.15049 14.4789 2.21855 14.5111C2.2866 14.5433 2.36114 14.5632 2.43789 14.5698C2.51464 14.5764 2.59209 14.5695 2.66582 14.5494C2.73955 14.5293 2.8081 14.4966 2.86755 14.453L14.3611 6.04411C14.467 5.96829 14.5989 5.92695 14.7349 5.92695C14.8709 5.92695 15.0028 5.96829 15.1087 6.04411L26.6028 14.453C26.6622 14.4966 26.7306 14.5294 26.8042 14.5495C26.8778 14.5696 26.9552 14.5767 27.0319 14.5702C27.1086 14.5638 27.1831 14.544 27.2512 14.5119C27.3192 14.4799 27.3795 14.4363 27.4286 14.3835L28.6746 13.038C28.7237 12.985 28.7604 12.9239 28.7828 12.8582C28.8052 12.7925 28.8128 12.7236 28.805 12.6553C28.7973 12.587 28.7745 12.5207 28.7378 12.4603C28.7012 12.3999 28.6515 12.3465 28.5915 12.3032Z" fill="black"/>
</g>
<defs>
<clipPath id="clip0_27_722">
<rect width="28.1452" height="25" fill="white" transform="translate(0.661133)"/>
</clipPath>
</defs>
</svg>
