<svg width="24" height="26" viewBox="0 0 24 26" fill="none" xmlns="http://www.w3.org/2000/svg">
<path d="M20.8 0H7.8C6.3661 0 5.2 1.1661 5.2 2.6V10.4H2.6C1.1661 10.4 0 11.5661 0 13V24.7C0 25.0448 0.136964 25.3754 0.380761 25.6192C0.624558 25.863 0.955219 26 1.3 26H22.1C22.4448 26 22.7754 25.863 23.0192 25.6192C23.263 25.3754 23.4 25.0448 23.4 24.7V2.6C23.4 1.1661 22.2339 0 20.8 0ZM2.6 13H10.4V23.4H2.6V13ZM20.8 23.4H13V13C13 11.5661 11.8339 10.4 10.4 10.4H7.8V2.6H20.8V23.4Z" fill="black"/>
<path d="M10.4 5.2002H13V7.8002H10.4V5.2002ZM15.6 5.2002H18.2V7.8002H15.6V5.2002ZM15.6 10.4405H18.2V13.0002H15.6V10.4405ZM15.6 15.6002H18.2V18.2002H15.6V15.6002ZM5.19995 15.6015H7.79995V18.2015H5.19995V15.6015Z" fill="black"/>
</svg>
