<svg width="21" height="20" viewBox="0 0 21 20" fill="none" xmlns="http://www.w3.org/2000/svg">
<g clip-path="url(#clip0_27_742)">
<path d="M9.50656 19.5965C3.83086 11.3684 2.77734 10.5239 2.77734 7.5C2.77734 3.35785 6.1352 0 10.2773 0C14.4195 0 17.7773 3.35785 17.7773 7.5C17.7773 10.5239 16.7238 11.3684 11.0481 19.5965C10.6757 20.1345 9.87898 20.1345 9.50656 19.5965ZM10.2773 10.625C12.0032 10.625 13.4023 9.2259 13.4023 7.5C13.4023 5.7741 12.0032 4.375 10.2773 4.375C8.55145 4.375 7.15234 5.7741 7.15234 7.5C7.15234 9.2259 8.55145 10.625 10.2773 10.625Z" fill="#6B7387"/>
</g>
<defs>
<clipPath id="clip0_27_742">
<rect width="20" height="20" fill="white" transform="translate(0.277344)"/>
</clipPath>
</defs>
</svg>
