<svg width="25" height="26" viewBox="0 0 25 26" fill="none" xmlns="http://www.w3.org/2000/svg">
<path d="M1.9329 13.9012L0 15.8341L6.76515 18.7335L9.66587 25.5L11.5988 23.5671L10.6323 18.7335L15.1611 14.2047L20.0959 24.7359L21.9263 22.9055L20.2996 9.06761L24.1654 5.20044C24.4265 4.94825 24.6348 4.64657 24.778 4.31302C24.9213 3.97946 24.9967 3.62071 24.9999 3.2577C25.0031 2.89469 24.9339 2.53469 24.7964 2.19869C24.6589 1.8627 24.4559 1.55745 24.1992 1.30075C23.9425 1.04406 23.6373 0.841053 23.3013 0.703588C22.9653 0.566123 22.6053 0.496949 22.2423 0.500103C21.8793 0.503258 21.5205 0.578677 21.187 0.721961C20.8534 0.865244 20.5518 1.07352 20.2996 1.33464L16.3312 5.30297L2.49336 3.6749L0.764138 5.40549L11.2133 10.4223L6.76652 14.869L1.9329 13.9012Z" fill="black"/>
</svg>
