<svg width="17" height="15" viewBox="0 0 17 15" fill="none" xmlns="http://www.w3.org/2000/svg">
<g clip-path="url(#clip0_27_727)">
<path d="M2.1658 13.5938C2.1658 13.9667 2.33259 14.3244 2.62949 14.5881C2.92639 14.8518 3.32908 15 3.74896 15H13.248C13.6678 15 14.0705 14.8518 14.3674 14.5881C14.6643 14.3244 14.8311 13.9667 14.8311 13.5938V3.75H2.1658V13.5938ZM11.1371 6.09375C11.1371 5.96943 11.1927 5.85021 11.2916 5.7623C11.3906 5.67439 11.5248 5.625 11.6648 5.625C11.8047 5.625 11.939 5.67439 12.0379 5.7623C12.1369 5.85021 12.1925 5.96943 12.1925 6.09375V12.6563C12.1925 12.7806 12.1369 12.8998 12.0379 12.9877C11.939 13.0756 11.8047 13.125 11.6648 13.125C11.5248 13.125 11.3906 13.0756 11.2916 12.9877C11.1927 12.8998 11.1371 12.7806 11.1371 12.6563V6.09375ZM7.97073 6.09375C7.97073 5.96943 8.02633 5.85021 8.1253 5.7623C8.22427 5.67439 8.3585 5.625 8.49846 5.625C8.63842 5.625 8.77264 5.67439 8.87161 5.7623C8.97058 5.85021 9.02618 5.96943 9.02618 6.09375V12.6563C9.02618 12.7806 8.97058 12.8998 8.87161 12.9877C8.77264 13.0756 8.63842 13.125 8.49846 13.125C8.3585 13.125 8.22427 13.0756 8.1253 12.9877C8.02633 12.8998 7.97073 12.7806 7.97073 12.6563V6.09375ZM4.8044 6.09375C4.8044 5.96943 4.86 5.85021 4.95897 5.7623C5.05794 5.67439 5.19217 5.625 5.33213 5.625C5.47209 5.625 5.60631 5.67439 5.70528 5.7623C5.80425 5.85021 5.85985 5.96943 5.85985 6.09375V12.6563C5.85985 12.7806 5.80425 12.8998 5.70528 12.9877C5.60631 13.0756 5.47209 13.125 5.33213 13.125C5.19217 13.125 5.05794 13.0756 4.95897 12.9877C4.86 12.8998 4.8044 12.7806 4.8044 12.6563V6.09375ZM15.3588 0.937505H11.4009L11.0909 0.389654C11.0252 0.272529 10.924 0.174006 10.7988 0.105169C10.6735 0.0363316 10.5291 -8.87099e-05 10.3818 5.13654e-06H6.61185C6.46487 -0.000496735 6.32071 0.0357878 6.19588 0.104702C6.07104 0.173615 5.97059 0.272371 5.90602 0.389654L5.59599 0.937505H1.63807C1.49811 0.937505 1.36388 0.986891 1.26492 1.0748C1.16595 1.16271 1.11035 1.28193 1.11035 1.40626V2.34376C1.11035 2.46808 1.16595 2.5873 1.26492 2.67521C1.36388 2.76312 1.49811 2.81251 1.63807 2.81251H15.3588C15.4988 2.81251 15.633 2.76312 15.732 2.67521C15.831 2.5873 15.8866 2.46808 15.8866 2.34376V1.40626C15.8866 1.28193 15.831 1.16271 15.732 1.0748C15.633 0.986891 15.4988 0.937505 15.3588 0.937505Z" fill="#6B7387"/>
</g>
<defs>
<clipPath id="clip0_27_727">
<rect width="16.8871" height="15" fill="white" transform="translate(0.0546875)"/>
</clipPath>
</defs>
</svg>
