<svg width="21" height="20" viewBox="0 0 21 20" fill="none" xmlns="http://www.w3.org/2000/svg">
<g clip-path="url(#clip0_27_762)">
<path d="M7.32275 10C9.53213 10 11.3228 8.20937 11.3228 6C11.3228 3.79063 9.53213 2 7.32275 2C5.11338 2 3.32275 3.79063 3.32275 6C3.32275 8.20937 5.11338 10 7.32275 10ZM10.1228 11H9.60088C8.90713 11.3187 8.13525 11.5 7.32275 11.5C6.51025 11.5 5.7415 11.3187 5.04463 11H4.52275C2.204 11 0.322754 12.8812 0.322754 15.2V16.5C0.322754 17.3281 0.994629 18 1.82275 18H12.8228C13.6509 18 14.3228 17.3281 14.3228 16.5V15.2C14.3228 12.8812 12.4415 11 10.1228 11ZM20.2165 6.9875L19.3478 6.10938C19.204 5.9625 18.9696 5.9625 18.8228 6.10625L15.5478 9.35625L14.1259 7.925C13.9821 7.77813 13.7478 7.77813 13.6009 7.92188L12.7228 8.79375C12.5759 8.9375 12.5759 9.17187 12.7196 9.31875L15.2728 11.8906C15.4165 12.0375 15.6509 12.0375 15.7978 11.8938L20.2134 7.5125C20.3571 7.36562 20.3603 7.13125 20.2165 6.9875Z" fill="black"/>
</g>
<defs>
<clipPath id="clip0_27_762">
<rect width="20" height="20" fill="white" transform="translate(0.322754)"/>
</clipPath>
</defs>
</svg>
