<svg width="32" height="32" viewBox="0 0 32 32" fill="none" xmlns="http://www.w3.org/2000/svg">
<path d="M13.6847 27.368C16.721 27.3673 19.6697 26.351 22.0615 24.4807L29.5812 32L32 29.5814L24.4802 22.062C26.3516 19.6702 27.3687 16.7209 27.3694 13.684C27.3694 6.13898 21.2301 0 13.6847 0C6.13931 0 0 6.13898 0 13.684C0 21.229 6.13931 27.368 13.6847 27.368ZM13.6847 3.421C19.3451 3.421 23.9483 8.02395 23.9483 13.684C23.9483 19.344 19.3451 23.947 13.6847 23.947C8.02438 23.947 3.42118 19.344 3.42118 13.684C3.42118 8.02395 8.02438 3.421 13.6847 3.421Z" fill="black"/>
</svg>
