<svg width="16" height="20" viewBox="0 0 16 20" fill="none" xmlns="http://www.w3.org/2000/svg">
<path d="M12.3799 0H3.62588C3.40188 0 2.22688 0.0650001 1.12288 1.351C0.0358828 2.616 0.00488281 3.862 0.00488281 4V15C0.00488281 15.5304 0.215596 16.0391 0.590669 16.4142C0.965742 16.7893 1.47445 17 2.00488 17H3.00488L1.00488 20H3.35788L4.02488 19H12.0249L12.7019 20H15.0049L13.0049 17H14.0049C14.5353 17 15.044 16.7893 15.4191 16.4142C15.7942 16.0391 16.0049 15.5304 16.0049 15V4C16.0059 3.812 15.9729 2.566 14.8759 1.335C13.7199 0.0370001 12.5139 0 12.3799 0ZM6.00488 2H10.0049V4H6.00488V2ZM3.50488 15C3.10693 14.9999 2.72532 14.8417 2.44402 14.5602C2.16271 14.2787 2.00475 13.897 2.00488 13.499C2.00502 13.101 2.16323 12.7194 2.44472 12.4381C2.72621 12.1568 3.10793 11.9989 3.50588 11.999C3.90384 11.9991 4.28545 12.1573 4.56675 12.4388C4.84806 12.7203 5.00602 13.102 5.00588 13.5C5.00575 13.898 4.84754 14.2796 4.56604 14.5609C4.28455 14.8422 3.90284 15.0001 3.50488 15ZM12.5049 15C12.1069 14.9999 11.7253 14.8417 11.444 14.5602C11.1627 14.2787 11.0048 13.897 11.0049 13.499C11.005 13.101 11.1632 12.7194 11.4447 12.4381C11.7262 12.1568 12.1079 11.9989 12.5059 11.999C12.9038 11.9991 13.2854 12.1573 13.5667 12.4388C13.8481 12.7203 14.006 13.102 14.0059 13.5C14.0057 13.898 13.8475 14.2796 13.566 14.5609C13.2846 14.8422 12.9028 15.0001 12.5049 15ZM14.0049 10H2.00488V6H14.0049V10Z" fill="black"/>
</svg>
