<svg width="19" height="20" viewBox="0 0 19 20" fill="none" xmlns="http://www.w3.org/2000/svg">
<path d="M10.0049 20C13.7239 20 17.0679 17.965 18.8139 14.686L11.0049 10L18.8139 5.314C17.0679 2.035 13.7239 0 10.0049 0C4.49088 0 0.00488281 4.486 0.00488281 10C0.00488281 15.514 4.49088 20 10.0049 20ZM9.50488 4C9.90284 4.00013 10.2844 4.15835 10.5658 4.43984C10.8471 4.72133 11.005 5.10304 11.0049 5.501C11.0048 5.89896 10.8465 6.28056 10.565 6.56187C10.2836 6.84317 9.90184 7.00113 9.50388 7.001C9.10593 7.00087 8.72432 6.84265 8.44302 6.56116C8.16171 6.27967 8.00375 5.89796 8.00388 5.5C8.00402 5.10204 8.16223 4.72044 8.44372 4.43913C8.72521 4.15783 9.10693 3.99987 9.50488 4Z" fill="black"/>
</svg>
