<svg width="26" height="31" viewBox="0 0 26 31" fill="none" xmlns="http://www.w3.org/2000/svg">
<path d="M13 0C11.5716 0 10.1752 0.469473 8.98755 1.34905C7.79986 2.22863 6.87417 3.4788 6.32754 4.94149C5.7809 6.40417 5.63788 8.01367 5.91655 9.56645C6.19522 11.1192 6.88307 12.5455 7.89312 13.665C8.90316 14.7845 10.19 15.5469 11.591 15.8558C12.992 16.1646 14.4441 16.0061 15.7638 15.4003C17.0835 14.7944 18.2115 13.7684 19.0051 12.452C19.7986 11.1356 20.2222 9.58799 20.2222 8.00479C20.2222 5.88179 19.4613 3.84574 18.1069 2.34455C16.7525 0.843359 14.9155 0 13 0ZM13 12.8077C12.1429 12.8077 11.3051 12.526 10.5925 11.9982C9.87992 11.4705 9.3245 10.7204 8.99652 9.84277C8.66854 8.96516 8.58273 7.99946 8.74993 7.0678C8.91713 6.13613 9.32984 5.28034 9.93587 4.60865C10.5419 3.93695 11.314 3.47952 12.1546 3.2942C12.9952 3.10888 13.8665 3.204 14.6583 3.56751C15.4501 3.93103 16.1269 4.54663 16.603 5.33646C17.0792 6.12628 17.3333 7.05487 17.3333 8.00479C17.3333 9.27859 16.8768 10.5002 16.0641 11.4009C15.2515 12.3016 14.1493 12.8077 13 12.8077ZM26 30.4182V28.8172C26 25.845 24.9347 22.9946 23.0385 20.8929C21.1423 18.7912 18.5705 17.6105 15.8889 17.6105H10.1111C7.42948 17.6105 4.85768 18.7912 2.96148 20.8929C1.06527 22.9946 0 25.845 0 28.8172V30.4182H2.88889V28.8172C2.88889 26.6942 3.6498 24.6582 5.00423 23.157C6.35866 21.6558 8.19566 20.8125 10.1111 20.8125H15.8889C17.8043 20.8125 19.6413 21.6558 20.9958 23.157C22.3502 24.6582 23.1111 26.6942 23.1111 28.8172V30.4182H26Z" fill="black"/>
</svg>
