<svg width="23" height="25" viewBox="0 0 23 25" fill="none" xmlns="http://www.w3.org/2000/svg">
<g clip-path="url(#clip0_27_1325)">
<path d="M13.941 4.6875C15.09 4.6875 16.0223 3.6377 16.0223 2.34375C16.0223 1.0498 15.09 0 13.941 0C12.792 0 11.8598 1.0498 11.8598 2.34375C11.8598 3.6377 12.792 4.6875 13.941 4.6875ZM18.0385 11.9678L17.0282 11.3916L16.6076 9.95605C15.9702 7.77832 14.1925 6.25488 12.1763 6.25C10.6153 6.24512 9.75249 6.74316 8.13085 7.48047C7.19429 7.90527 6.42683 8.71094 5.97589 9.73633L5.68538 10.4004C5.34718 11.1719 5.62034 12.1094 6.30108 12.4951C6.97749 12.8809 7.80132 12.5684 8.14386 11.7969L8.43436 11.1328C8.58612 10.791 8.83761 10.5225 9.14979 10.3809L10.3118 9.85352L9.65276 12.8174C9.42729 13.833 9.67011 14.9121 10.2988 15.6885L12.896 18.8818C13.2082 19.2676 13.4294 19.7314 13.5421 20.2344L14.3356 23.8135C14.522 24.6484 15.2765 25.1611 16.0179 24.9512C16.7594 24.7412 17.2146 23.8916 17.0282 23.0566L16.0656 18.7109C15.9529 18.208 15.7317 17.7393 15.4196 17.3584L13.4467 14.9316L14.1925 11.5771L14.431 12.3828C14.6608 13.1689 15.1551 13.8184 15.8055 14.1895L16.8157 14.7656C17.4921 15.1514 18.316 14.8389 18.6585 14.0674C18.9924 13.3008 18.7192 12.3535 18.0385 11.9678ZM8.11351 18.8379C7.97476 19.2334 7.76663 19.5898 7.4978 19.8877L5.32983 22.334C4.78784 22.9443 4.78784 23.9355 5.32983 24.5459C5.87183 25.1563 6.74769 25.1563 7.28968 24.5459L9.86522 21.6455C10.1297 21.3477 10.3378 20.9912 10.4809 20.5957L11.0663 18.9453C8.66851 16.001 9.38827 16.9043 9.01104 16.3232L8.11351 18.8379Z" fill="#5EC576"/>
</g>
<defs>
<clipPath id="clip0_27_1325">
<rect width="22.2" height="25" fill="white" transform="translate(0.759766)"/>
</clipPath>
</defs>
</svg>
